<?xml version="1.0" encoding="utf-8"?>
<!-- Generator: Adobe Illustrator 27.5.0, SVG Export Plug-In . SVG Version: 6.00 Build 0)  -->
<svg version="1.1" xmlns="http://www.w3.org/2000/svg" xmlns:xlink="http://www.w3.org/1999/xlink" x="0px" y="0px"
	 viewBox="0 0 500 500" style="enable-background:new 0 0 500 500;" xml:space="preserve">
<g id="BACKGROUND">
	<rect style="fill:none;" width="500" height="500"/>
</g>
<g id="OBJECTS">
	<g style="opacity:0.4;">
		<path style="fill:#969696;" d="M31.625,305.318c6.149-19.665,22.041-34.409,36.419-49.167
			c14.379-14.757,28.534-32.121,29.534-52.701c1.437-29.588-24.792-55.613-22.097-85.112c2.344-25.657,27.368-44.946,52.963-47.892
			c25.595-2.946,50.991,7.095,73.219,20.122c22.228,13.027,42.612,29.218,65.761,40.528c33.372,16.305,70.807,21.699,107.182,29.209
			c26.762,5.525,54.533,12.966,74.43,31.697c15.258,14.364,24.65,35.105,24.158,56.055c-0.492,20.95-11.258,41.669-28.793,53.143
			c-27.178,17.783-63.073,11.307-94.31,2.41c-31.237-8.897-64.836-19.556-95.325-8.362c-30.538,11.211-49.512,41.378-76.128,60.082
			c-29.109,20.456-69.86,24.507-104.768,22.094C41.05,375.156,22.451,334.656,31.625,305.318z"/>
		<path style="fill:#969696;" d="M418.568,328.172c10.445-4.212,20.889-8.424,31.334-12.637c3.443-1.388,7.11-2.804,10.769-2.173
			c6.787,1.17,10.576,9.271,9.339,16.047c-1.237,6.775-6.061,12.293-11.056,17.035c-6.52,6.19-13.788,11.783-22.134,15.129
			c-8.345,3.346-17.893,4.287-26.349,1.233c-6.321-2.283-17.792-10.601-16.055-18.596
			C396.134,336.302,412.237,330.725,418.568,328.172z"/>
	</g>
	<g>
		<g>
			<path style="fill:#2E363D;" d="M451.491,331.124c-1.861-0.411-3.636-1.244-5.135-2.409l0.483-0.593
				c1.408,1.094,3.075,1.876,4.823,2.262L451.491,331.124z M457.186,331.12l-0.173-0.738c1.747-0.39,3.413-1.175,4.817-2.272
				l0.485,0.592C460.82,329.868,459.046,330.705,457.186,331.12z M442.796,324.376c-0.843-1.697-1.272-3.52-1.276-5.419l0.776-0.001
				c0.004,1.784,0.407,3.496,1.198,5.09L442.796,324.376z M465.867,324.353l-0.699-0.329c0.788-1.595,1.188-3.308,1.188-5.093
				l0.556-0.036l0.22,0.018C467.132,320.831,466.707,322.655,465.867,324.353z M443.473,313.859l-0.7-0.328
				c0.825-1.68,2.05-3.185,3.543-4.354l0.485,0.591C445.399,310.866,444.247,312.281,443.473,313.859z M465.148,313.795
				c-0.785-1.573-1.944-2.98-3.354-4.071l0.482-0.593c1.5,1.16,2.734,2.659,3.569,4.333L465.148,313.795z M451.615,307.487
				l-0.174-0.738c0.94-0.211,1.909-0.318,2.88-0.318c0,0,0.004,0,0.005,0c0.947,0,1.893,0.101,2.81,0.302l-0.17,0.739
				c-0.861-0.188-1.75-0.283-2.641-0.283c-0.002,0-0.003,0-0.003,0C453.408,307.188,452.498,307.288,451.615,307.487z"/>
		</g>
		<g>
			<path style="fill:#2E363D;" d="M53.116,262.555c-0.002,0-0.003,0.001-0.005,0.001l-0.22,0.048l-0.166-0.74l0.213-0.046
				c0.001,0,0.003-0.001,0.005-0.001c1.67-0.372,3.295-0.919,4.832-1.626l0.331,0.685C56.519,261.605,54.84,262.17,53.116,262.555z
				 M47.414,263.16c-1.839-0.017-3.678-0.24-5.467-0.661l0.182-0.737c1.732,0.408,3.513,0.623,5.293,0.64L47.414,263.16z
				 M62.789,258.047l-0.48-0.595c1.395-1.073,2.67-2.305,3.788-3.662l0.605,0.475C65.546,255.667,64.23,256.939,62.789,258.047z
				 M36.772,260.656c-1.646-0.801-3.201-1.784-4.622-2.922l0.492-0.585c1.377,1.102,2.883,2.054,4.476,2.829L36.772,260.656z
				 M69.652,249.727l-0.698-0.331c0.781-1.565,1.381-3.216,1.782-4.907l0.756,0.171C71.077,246.406,70.458,248.111,69.652,249.727z
				 M28.312,253.881c-1.125-1.421-2.085-2.968-2.853-4.598l0.705-0.317c0.743,1.579,1.673,3.076,2.762,4.452L28.312,253.881z
				 M72.118,239.315h-0.776c0-1.73-0.201-3.47-0.6-5.172l0.757-0.169C71.91,235.732,72.118,237.529,72.118,239.315z M24.496,244.021
				l-0.76,0.156c-0.378-1.763-0.553-3.563-0.519-5.351l0.776,0.014C23.96,240.57,24.129,242.314,24.496,244.021z M69.345,230.003
				c-0.714-1.592-1.614-3.107-2.677-4.501l0.623-0.452c1.098,1.441,2.029,3.005,2.766,4.65L69.345,230.003z M24.698,233.679
				l-0.753-0.184c0.448-1.739,1.098-3.433,1.935-5.035l0.692,0.344C25.761,230.355,25.131,231.995,24.698,233.679z M63.023,221.704
				c-1.356-1.127-2.844-2.105-4.423-2.909l0.359-0.672c1.63,0.83,3.167,1.84,4.567,3.004L63.023,221.704z M29.511,224.461
				l-0.596-0.486c1.18-1.378,2.52-2.627,3.983-3.71l0.469,0.603C31.95,221.917,30.653,223.126,29.511,224.461z M53.624,216.921
				c-1.725-0.439-3.501-0.686-5.279-0.735l0.022-0.757c1.837,0.05,3.672,0.306,5.454,0.76L53.624,216.921z M37.952,218.212
				l-0.318-0.691c1.463-0.641,3.004-1.144,4.58-1.495c0.227-0.051,0.444-0.096,0.666-0.139l0.152,0.743
				c-0.215,0.042-0.445,0.076-0.645,0.135C40.86,217.105,39.368,217.592,37.952,218.212z"/>
		</g>
		<g>
			<path style="fill:#2E363D;" d="M80.198,245.634c0.907,3.875-1.576,7.734-5.545,8.62c-3.97,0.885-7.923-1.538-8.83-5.413
				c-0.907-3.875,1.576-7.734,5.545-8.62C75.338,239.335,79.291,241.759,80.198,245.634z"/>
		</g>
		<g>
			<path style="fill:#2E363D;" d="M351.933,102.288c0,2.929-2.432,5.303-5.433,5.303c-3,0-5.433-2.374-5.433-5.303
				s2.432-5.303,5.433-5.303C349.5,96.985,351.933,99.359,351.933,102.288z"/>
		</g>
		<g>
			<path style="fill:#2E363D;" d="M449.282,309.814c0,2.092-1.737,3.788-3.881,3.788c-2.143,0-3.881-1.696-3.881-3.788
				c0-2.092,1.737-3.788,3.881-3.788C447.544,306.026,449.282,307.722,449.282,309.814z"/>
		</g>
		<g>
			<ellipse style="fill:#2E363D;" cx="157.554" cy="105.502" rx="5.821" ry="5.682"/>
		</g>
		<g>
			<path style="fill:#2E363D;" d="M168.031,122.927c-0.461,0-0.924-0.029-1.376-0.087l0.101-0.751
				c1.725,0.221,3.51-0.015,5.112-0.689l0.307,0.695C170.864,122.648,169.47,122.927,168.031,122.927z M161.524,120.717
				c-1.484-1.15-2.622-2.667-3.292-4.388l0.725-0.269c0.62,1.594,1.674,2.999,3.049,4.064L161.524,120.717z M176.521,118.694
				l-0.628-0.445c1.027-1.385,1.651-3.016,1.803-4.718l0.773,0.066C178.305,115.435,177.631,117.198,176.521,118.694z M158.33,112.7
				h-0.776c0-1.851,0.512-3.664,1.48-5.244l0.666,0.389C158.803,109.307,158.33,110.986,158.33,112.7z M176.767,108.577
				c-0.762-1.537-1.939-2.847-3.402-3.789l0.427-0.632c1.579,1.017,2.849,2.432,3.673,4.091L176.767,108.577z M163.428,104.361
				l-0.369-0.667c1.652-0.871,3.567-1.294,5.432-1.213l-0.034,0.757C166.733,103.166,164.957,103.555,163.428,104.361z"/>
		</g>
		<g>
			<path style="fill:#2E363D;" d="M358.41,122.581c-1.879-0.137-3.674-0.643-5.335-1.503l0.364-0.669
				c1.566,0.811,3.257,1.287,5.029,1.416L358.41,122.581z M363.915,121.88l-0.256-0.715c1.67-0.57,3.179-1.457,4.483-2.638
				l0.528,0.555C367.286,120.335,365.686,121.276,363.915,121.88z M348.805,117.613c-1.175-1.44-2.015-3.07-2.497-4.842l0.75-0.194
				c0.455,1.67,1.247,3.205,2.355,4.563L348.805,117.613z M371.886,114.665l-0.711-0.303c0.708-1.58,1.066-3.262,1.066-5.002h0.776
				C373.017,111.204,372.637,112.989,371.886,114.665z M372.166,107.996c-0.192-1.722-0.737-3.355-1.621-4.857l0.673-0.377
				c0.938,1.593,1.516,3.326,1.719,5.153L372.166,107.996z M346.774,107.476l-0.767-0.113c0.28-1.816,0.934-3.524,1.94-5.079
				l0.656,0.405C347.654,104.154,347.039,105.764,346.774,107.476z M367.067,99.321c-1.427-1.036-3.026-1.757-4.751-2.144
				l0.174-0.738c1.83,0.411,3.527,1.176,5.039,2.274L367.067,99.321z M352.243,99.014l-0.436-0.626
				c1.559-1.035,3.286-1.73,5.134-2.064l0.141,0.744C355.341,97.384,353.713,98.039,352.243,99.014z"/>
		</g>
	</g>
	<g>
		<g>
			<g>
				<g>
					<path style="fill:#DEDEDE;" d="M286.824,369.896h-73.715v25.227c24.312-5.541,48.986-10.135,73.715-14.4V369.896z"/>
					<path style="fill:#DEDEDE;" d="M213.109,395.123v26.117h73.715v-40.517C262.095,384.988,237.421,389.582,213.109,395.123z"/>
					<path style="fill:#969696;stroke:#121D30;stroke-width:0.75;stroke-miterlimit:10;" d="M338.219,434.443H161.715
						c-1.194,0-1.462-1.675-0.328-2.048l51.723-17.023h73.715l51.723,17.023C339.681,432.768,339.412,434.443,338.219,434.443z"/>
					
						<line style="fill:none;stroke:#121D30;stroke-width:0.75;stroke-miterlimit:10;" x1="278.463" y1="415.372" x2="285.078" y2="415.372"/>
					
						<line style="fill:none;stroke:#121D30;stroke-width:0.75;stroke-miterlimit:10;" x1="213.109" y1="415.372" x2="271.661" y2="415.372"/>
					
						<line style="fill:none;stroke:#121D30;stroke-width:0.75;stroke-miterlimit:10;" x1="213.109" y1="369.896" x2="213.576" y2="404.066"/>
					
						<line style="fill:none;stroke:#121D30;stroke-width:0.75;stroke-miterlimit:10;" x1="286.571" y1="375.634" x2="287.038" y2="409.804"/>
				</g>
				<path style="fill:#2E363D;stroke:#121D30;stroke-width:0.75;stroke-miterlimit:10;" d="M394.681,375.563H105.163
					c-6.905,0-12.504-5.598-12.504-12.503V171.839c0-6.905,5.598-12.503,12.504-12.503h289.518c6.905,0,12.503,5.598,12.503,12.503
					V363.06C407.185,369.965,401.586,375.563,394.681,375.563z"/>
				<path style="fill:#969696;stroke:#121D30;stroke-width:0.75;stroke-miterlimit:10;" d="M92.659,353.329v9.731
					c0,6.905,5.598,12.503,12.504,12.503h289.518c6.905,0,12.503-5.598,12.503-12.503v-9.731H92.659z"/>
				<path style="fill:#DEDEDE;" d="M103.838,341.584V171.075c0-1.083,0.878-1.96,1.96-1.96h288.248c1.083,0,1.96,0.878,1.96,1.96
					v170.509c0,1.082-0.878,1.96-1.96,1.96H105.798C104.715,343.545,103.838,342.667,103.838,341.584z"/>
				<path style="fill:none;stroke:#121D30;stroke-width:0.75;stroke-miterlimit:10;" d="M103.838,341.584V171.075
					c0-1.083,0.878-1.96,1.96-1.96h288.248c1.083,0,1.96,0.878,1.96,1.96v170.509c0,1.082-0.878,1.96-1.96,1.96H105.798
					C104.715,343.545,103.838,342.667,103.838,341.584z"/>
				<path style="fill:none;stroke:#121D30;stroke-width:0.75;stroke-miterlimit:10;" d="M255.056,362.84
					c0,2.836-2.299,5.134-5.134,5.134c-2.836,0-5.134-2.299-5.134-5.134c0-2.836,2.299-5.134,5.134-5.134
					C252.757,357.705,255.056,360.004,255.056,362.84z"/>
			</g>
			<line style="fill:none;stroke:#121D30;stroke-miterlimit:10;" x1="66.39" y1="434.92" x2="433.454" y2="434.92"/>
		</g>
		<g>
			<g>
				<g>
					<path style="fill:#121D30;" d="M242.617,102.212c0,0,14.341-20.921,32.276-10.491c22.453,13.057-4.664,44.162,11.932,53.163
						c16.596,9.001,33.754,9.702,38.536,34.598c6.252,32.551-52.626,78.313-102.414,49.34c-49.788-28.973-32.077-83.196-8.695-93.99
						C242.385,121.847,242.617,102.212,242.617,102.212z"/>
					<path style="fill:#D28A7B;" d="M263.064,157.732v22.317c0,3.722-1.513,7.089-3.954,9.529c-2.427,2.44-5.794,3.953-9.516,3.953
						c-7.443,0-13.469-6.039-13.469-13.483v-22.317H263.064z"/>
					<g>
						<path style="fill:#D28A7B;" d="M206.688,142.433c1.118,5.461,6.451,8.981,11.912,7.863c5.461-1.118,8.981-6.451,7.863-11.912
							c-1.118-5.461-6.451-8.981-11.911-7.863C209.091,131.639,205.57,136.972,206.688,142.433z"/>
						<path style="fill:#121D30;" d="M221.828,125.533v17.013c0,0-6.755-6-6.568-17.814L221.828,125.533z"/>
						
							<line style="fill:none;stroke:#121D30;stroke-width:0.75;stroke-miterlimit:10;" x1="209.454" y1="138.607" x2="217.451" y2="144.018"/>
					</g>
					<g>
						<path style="fill:#D28A7B;" d="M265.125,140.408c1.118,5.461,6.451,8.981,11.912,7.863c5.461-1.118,8.981-6.451,7.863-11.912
							c-1.118-5.461-6.451-8.981-11.912-7.863C267.528,129.615,264.007,134.947,265.125,140.408z"/>
						<path style="fill:#121D30;" d="M275.013,138.384c0,0,5.772-6.313,3.744-21.282h-8.092L275.013,138.384z"/>
						
							<line style="fill:none;stroke:#121D30;stroke-width:0.75;stroke-miterlimit:10;" x1="273.35" y1="142.837" x2="281.179" y2="135.253"/>
					</g>
					<path style="fill:#D28A7B;" d="M248.42,98.94L248.42,98.94c-14.687,0-26.593,11.906-26.593,26.592v19.36
						c0,4.092,2.107,7.895,5.575,10.065l14.72,9.211c3.852,2.411,8.743,2.411,12.596,0l14.72-9.211
						c3.468-2.17,5.575-5.973,5.575-10.065v-19.36C275.013,110.846,263.107,98.94,248.42,98.94z"/>
					<path style="fill:none;stroke:#121D30;stroke-width:0.75;stroke-miterlimit:10;" d="M236.125,160.639l5.997,3.753
						c3.852,2.411,8.743,2.411,12.596,0"/>
					<polyline style="fill:none;stroke:#121D30;stroke-width:0.75;stroke-miterlimit:10;" points="246.192,98.94 252.865,144.891 
						244.492,144.891 					"/>
					<path style="fill:#CB705D;" d="M273.828,139.045c0,3.758-3.046,6.805-6.805,6.805c-3.758,0-6.805-3.047-6.805-6.805
						c0-3.758,3.047-6.804,6.805-6.804C270.782,132.24,273.828,135.287,273.828,139.045z"/>
					<path style="fill:#CB705D;" d="M237.608,139.045c0,3.758-3.046,6.805-6.804,6.805c-3.758,0-6.804-3.047-6.804-6.805
						c0-3.758,3.047-6.804,6.804-6.804C234.562,132.24,237.608,135.287,237.608,139.045z"/>
					<g>
						<path style="fill:#121D30;" d="M263.054,132.543c0,2.364-1.041,4.267-2.334,4.267c-1.293,0-2.349-1.903-2.349-4.267
							c0-1.903,0.699-3.523,1.65-4.059h0.015l2.869,2.542C262.994,131.487,263.054,132.008,263.054,132.543z"/>
						<path style="fill:#121D30;" d="M238.465,132.543c0,2.364-1.041,4.267-2.334,4.267c-1.308,0-2.349-1.903-2.349-4.267
							c0-0.684,0.089-1.323,0.253-1.888l3.285-1.754C238.019,129.644,238.465,130.997,238.465,132.543z"/>
					</g>
					<path style="fill:#121D30;" d="M279.509,95.323c-17.941-10.429-36.898,6.883-36.898,6.883s-0.232,19.645-28.356,32.623
						c-5.93,2.74-13.878,12.492-17.599,18.422c0,0,8.22-23.712,10.81-39.049c2.604-15.351,16.237-12.978,16.237-12.978
						s8.261-20.19,31.11-20.094C270.64,81.198,279.509,95.323,279.509,95.323z"/>
					<path style="fill:#121D30;" d="M261.286,115.878c3.253-2.116,5.302-1.645,4.816,2.868L261.286,115.878z"/>
					<path style="fill:#121D30;" d="M228.8,119.721c-0.732-3.811,0.477-5.531,4.474-3.378L228.8,119.721z"/>
				</g>
				<path style="fill:none;stroke:#121D30;stroke-width:0.75;stroke-miterlimit:10;" d="M244.125,152.632
					c3.53-4.774,7.979-2.815,9.107,0"/>
			</g>
			<g>
				<path style="fill:#DBA195;" d="M362.175,159.225L362.175,159.225c2.744,6.462-0.27,13.925-6.732,16.669l-58.137,24.688
					c-6.462,2.744-13.925-0.27-16.67-6.732l0,0c-2.744-6.462,0.27-13.926,6.732-16.67l58.137-24.688
					C351.968,149.749,359.431,152.763,362.175,159.225z"/>
				<path style="fill:#DBA195;" d="M362.841,168.212L362.841,168.212c-3.714,8.042-13.245,11.551-21.288,7.836l-58.183-30.612
					l1.988-14.831l69.646,16.32C363.047,150.639,366.555,160.17,362.841,168.212z"/>
				<g>
					<g>
						<path style="fill:#DBA195;" d="M295.55,134.549c-5.342-11.78-4.293-25.126-4.293-25.126l-23.669,2.856
							c1.535,22.714,10.857,30.287,16.875,33.771L295.55,134.549z"/>
						<path style="fill:#DBA195;" d="M291.257,109.424c0,0-4.004-11.277-12.663-16.67l-13.528,4.511c0,0,7.099,7.683,7.793,14.379
							c0,0-6.484-9.133-12.47-11.078l-1.509,4.013c0,0,7.788,6.898,10.756,16.869L291.257,109.424z"/>
					</g>
					<path style="fill:none;stroke:#121D30;stroke-width:0.75;stroke-miterlimit:10;" d="M275.182,93.985
						c0,0,7.064,7.688,10.367,14.385"/>
					<path style="fill:none;stroke:#121D30;stroke-width:0.75;stroke-miterlimit:10;" d="M269.859,95.666
						c0,0,6.852,6.482,10.037,15.021"/>
				</g>
				<g>
					<polygon style="fill:#E69230;" points="314.087,210.415 302.847,188.724 300.209,161.863 311.41,184.976 					"/>
					<polygon style="fill:#ed5537;" points="288.612,212.045 320.91,203.07 310.357,165.699 288.759,173.029 					"/>
					<polygon style="fill:#FFFFFF;" points="314.087,210.415 311.41,184.976 300.209,161.863 315.356,160.605 323.317,181.726 
						326.047,206.615 					"/>
				</g>
				
					<line style="fill:none;stroke:#121D30;stroke-width:0.75;stroke-miterlimit:10;" x1="318.543" y1="163.962" x2="330.971" y2="159.897"/>
				<path style="fill:#DBA195;" d="M137.668,159.225L137.668,159.225c-2.744,6.462,0.27,13.925,6.732,16.669l58.137,24.688
					c6.462,2.744,13.925-0.27,16.67-6.732l0,0c2.744-6.462-0.27-13.926-6.732-16.67l-58.137-24.688
					C147.876,149.749,140.412,152.763,137.668,159.225z"/>
				<path style="fill:#DBA195;" d="M137.003,168.212L137.003,168.212c3.714,8.042,13.245,11.551,21.288,7.836l58.183-30.612
					l-1.988-14.831l-69.646,16.32C136.797,150.639,133.288,160.17,137.003,168.212z"/>
				<g>
					<g>
						<path style="fill:#DBA195;" d="M204.294,134.549c5.342-11.78,4.293-25.126,4.293-25.126l23.669,2.856
							c-1.535,22.714-10.857,30.287-16.875,33.771L204.294,134.549z"/>
						<path style="fill:#DBA195;" d="M208.587,109.424c0,0,4.004-11.277,12.663-16.67l13.527,4.511c0,0-7.099,7.683-7.793,14.379
							c0,0,6.484-9.133,12.47-11.078l1.509,4.013c0,0-7.788,6.898-10.756,16.869L208.587,109.424z"/>
					</g>
					<path style="fill:none;stroke:#121D30;stroke-width:0.75;stroke-miterlimit:10;" d="M224.662,93.985
						c0,0-7.064,7.688-10.367,14.385"/>
					<path style="fill:none;stroke:#121D30;stroke-width:0.75;stroke-miterlimit:10;" d="M229.985,95.666
						c0,0-6.852,6.482-10.037,15.021"/>
				</g>
				<g>
					<polygon style="fill:#E69230;" points="185.757,210.415 196.996,188.724 199.635,161.863 188.434,184.976 					"/>
					<polygon style="fill:#ed5537;" points="211.232,212.045 178.934,203.07 189.487,165.699 211.085,173.029 					"/>
					<polygon style="fill:#FFFFFF;" points="185.757,210.415 188.434,184.976 199.635,161.863 184.488,160.605 176.526,181.726 
						173.797,206.615 					"/>
				</g>
				
					<line style="fill:none;stroke:#121D30;stroke-width:0.75;stroke-miterlimit:10;" x1="158.921" y1="159.419" x2="181.513" y2="163.961"/>
				<path style="fill:#ed5537;" d="M289.598,173.184l-36.733,12.204v0.392l-37.912-12.596c-12.003-3.988-23.468,7.314-19.651,19.374
					l28.446,89.871h29.117h21.739l34.646-89.871C313.066,180.498,301.601,169.196,289.598,173.184z"/>
				<polygon style="fill:#ed5537;" points="268.026,198.724 271.812,173.779 229.009,169.625 232.987,198.724 				"/>
				<g>
					<path style="fill:#FFFFFF;" d="M231.513,183.742c5.971,12.66,15.833,18.4,23.756,18.4c6.228,0,11.222-3.403,13.993-9.22
						c-0.426,4.401-1.154,10.359-2.347,16.275c-2.09,10.359-6.041,22.708-13,22.708c-0.67,0-1.372-0.115-2.086-0.342
						C239.345,227.591,233.478,196.935,231.513,183.742 M229.974,177.816c0,0,5.083,49.197,21.627,54.461
						c0.804,0.256,1.575,0.378,2.313,0.378c14.459,0,16.633-46.648,16.633-46.648c-1.586,10.343-7.919,15.385-15.278,15.385
						C245.979,201.392,235.054,193.36,229.974,177.816L229.974,177.816z"/>
				</g>
				<g>
					<polygon style="fill:#969696;" points="213.522,266.757 284.215,262.925 278.02,280.837 219.169,280.2 					"/>
					<path style="fill:#969696;" d="M278.02,280.837c0,0,24.215,22.387,25.65,62.318H195.382c0-37.527,23.787-62.955,23.787-62.955
						L278.02,280.837z"/>
					<path style="fill:none;stroke:#121D30;stroke-width:0.75;stroke-miterlimit:10;" d="M250.235,284.877l1.451,29.641
						c0,0-5.771-2.334-5.632-12.268"/>
					<path style="fill:none;stroke:#121D30;stroke-width:0.75;stroke-miterlimit:10;" d="M290.99,297.335h-17.543
						c0,0,8.176,19.11,25.568,17.434"/>
					<path style="fill:none;stroke:#121D30;stroke-width:0.75;stroke-miterlimit:10;" d="M197.969,317.516
						c0,0,12.953,3.12,24.44-15.283"/>
					<g>
						<rect x="221.173" y="277.78" style="fill:#121D30;" width="12.251" height="6.125"/>
						<rect x="262.703" y="277.78" style="fill:#121D30;" width="12.251" height="6.125"/>
						<rect x="239.114" y="277.78" style="fill:#121D30;" width="18.611" height="6.125"/>
						<rect x="243.85" y="276.549" style="fill:#FFFFFF;" width="9.139" height="8.589"/>
					</g>
				</g>
			</g>
		</g>
	</g>
	<g>
		<g>
			<path style="fill:#E69230;" d="M90.218,122.122l-4.546,8.728H38.891c-1.344,0-2.433,1.089-2.433,2.433v61.437
				c0,1.344,1.089,2.433,2.433,2.433h89.723c1.344,0,2.433-1.089,2.433-2.433v-59.308v-4.562v-7.604
				c0-1.344-1.089-2.433-2.433-2.433H92.376C91.469,120.813,90.637,121.317,90.218,122.122z"/>
			<rect x="38.891" y="122.866" style="fill:#EEEEEE;" width="89.875" height="69.193"/>
			<g>
				<path style="fill:#ed5537;" d="M90.218,126.456l-4.546,8.728H38.891c-1.344,0-2.433,1.089-2.433,2.433v61.438
					c0,1.344,1.089,2.433,2.433,2.433h89.723c1.344,0,2.433-1.089,2.433-2.433v-59.309v-4.562v-7.604
					c0-1.344-1.089-2.433-2.433-2.433H92.376C91.469,125.147,90.637,125.651,90.218,126.456z"/>
			</g>
			<g>
				<circle style="fill:#2E363D;" cx="127.668" cy="126.747" r="8.661"/>
				<path style="fill:#FFFFFF;" d="M131.36,129.968l-3.221-3.221l3.221-3.221c0.129-0.13,0.13-0.341,0-0.471
					c-0.13-0.13-0.342-0.13-0.471,0l-3.221,3.221l-3.221-3.221c-0.13-0.13-0.342-0.13-0.471,0c-0.13,0.13-0.129,0.342,0,0.471
					l3.221,3.221l-3.221,3.221c-0.13,0.13-0.13,0.342,0,0.471c0.13,0.13,0.342,0.13,0.471,0l3.221-3.221l3.221,3.221
					c0.13,0.13,0.342,0.13,0.471,0C131.489,130.31,131.489,130.098,131.36,129.968z"/>
			</g>
			<g>
				<g>
					<path style="fill:#FFFFFF;" d="M102.874,157.718c-2.724,0-5.227,0.938-7.21,2.505c0-0.038,0.002-0.076,0.002-0.115
						c0-6.855-5.557-12.412-12.413-12.412c-6.855,0-12.412,5.557-12.412,12.412c0,0.038,0.001,0.076,0.002,0.115
						c-1.983-1.567-4.487-2.505-7.21-2.505c-6.431,0-11.644,5.213-11.644,11.644c0,6.431,5.213,11.644,11.644,11.644
						c0.151,0,0.301-0.006,0.451-0.011c0.15,0.006,0.3,0.011,0.451,0.011h37.615c0.122,0,0.242-0.005,0.363-0.009
						c0.121,0.004,0.241,0.009,0.363,0.009c6.431,0,11.644-5.213,11.644-11.644C114.518,162.931,109.304,157.718,102.874,157.718z"
						/>
					<path style="fill:none;stroke:#121D30;stroke-width:0.75;stroke-miterlimit:10;" d="M102.874,157.718
						c-2.724,0-5.227,0.938-7.21,2.505c0-0.038,0.002-0.076,0.002-0.115c0-6.855-5.557-12.412-12.413-12.412
						c-6.855,0-12.412,5.557-12.412,12.412c0,0.038,0.001,0.076,0.002,0.115c-1.983-1.567-4.487-2.505-7.21-2.505
						c-6.431,0-11.644,5.213-11.644,11.644"/>
				</g>
				<g>
					<circle style="fill:#2E363D;" cx="83.753" cy="175.606" r="11.565"/>
					<path style="fill:#FFFFFF;" d="M88.682,179.906l-4.301-4.301l4.301-4.301c0.173-0.173,0.173-0.456,0-0.629
						c-0.173-0.173-0.456-0.173-0.629,0l-4.301,4.301l-4.301-4.301c-0.173-0.173-0.456-0.173-0.629,0
						c-0.173,0.173-0.173,0.456,0,0.629l4.301,4.301l-4.301,4.301c-0.173,0.173-0.173,0.456,0,0.629
						c0.173,0.173,0.456,0.173,0.629,0l4.301-4.301l4.301,4.301c0.173,0.173,0.456,0.173,0.629,0
						C88.855,180.362,88.855,180.079,88.682,179.906z"/>
				</g>
			</g>
		</g>
		<g>
			<path style="fill:#ed5537;" d="M416.06,355.82h-54.142c-9.872,0-17.874-8.003-17.874-17.874v-54.142
				c0-9.872,8.003-17.874,17.874-17.874h54.142c9.872,0,17.874,8.003,17.874,17.874v54.142
				C433.934,347.818,425.931,355.82,416.06,355.82z"/>
			<g>
				<path style="fill:#969696;" d="M392.803,288.654l-2.682,5.149h-27.6c-0.793,0-1.436,0.643-1.436,1.436v36.247
					c0,0.793,0.643,1.435,1.436,1.435h52.936c0.793,0,1.436-0.643,1.436-1.435v-34.991v-2.692v-4.486
					c0-0.793-0.643-1.436-1.436-1.436h-21.38C393.541,287.881,393.051,288.179,392.803,288.654z"/>
				<rect x="362.521" y="289.092" style="fill:#FFFFFF;" width="53.025" height="40.823"/>
				<g>
					<path style="fill:#EAEAEA;" d="M392.803,291.211l-2.682,5.149h-27.6c-0.793,0-1.436,0.643-1.436,1.436v36.247
						c0,0.793,0.643,1.435,1.436,1.435h52.936c0.793,0,1.436-0.643,1.436-1.435v-34.991v-2.692v-4.486
						c0-0.793-0.643-1.435-1.436-1.435h-21.38C393.541,290.438,393.051,290.736,392.803,291.211z"/>
					<g>
						
							<line style="fill:none;stroke:#121D30;stroke-width:0.75;stroke-miterlimit:10;" x1="360.85" y1="301.904" x2="360.85" y2="329.955"/>
						
							<line style="fill:none;stroke:#121D30;stroke-width:0.75;stroke-miterlimit:10;" x1="415.648" y1="335.516" x2="387.597" y2="335.516"/>
					</g>
				</g>
				<g>
					<path style="fill:none;stroke:#121D30;stroke-width:0.75;stroke-miterlimit:10;" d="M381.962,325.579
						c5.719-7.734,12.928-4.56,14.756,0"/>
					<g>
						<path style="fill:#121D30;" d="M380.766,309.391c0,2.019-0.903,3.655-2.017,3.655c-1.114,0-2.017-1.637-2.017-3.655
							c0-2.019,0.903-3.655,2.017-3.655C379.863,305.736,380.766,307.372,380.766,309.391z"/>
						<path style="fill:#121D30;" d="M401.949,309.391c0,2.019-0.903,3.655-2.017,3.655s-2.017-1.637-2.017-3.655
							c0-0.881,0.172-1.69,0.459-2.321c0.37-0.815,0.931-1.334,1.558-1.334C401.046,305.736,401.949,307.372,401.949,309.391z"/>
					</g>
					<g>
						<path style="fill:#121D30;" d="M399.171,304.483c1.563-1.723,2.823-1.762,3.23,0.929L399.171,304.483z"/>
						<path style="fill:#121D30;" d="M378.806,301.733c-1.563-1.723-2.824-1.762-3.23,0.929L378.806,301.733z"/>
					</g>
				</g>
				<g>
					<path style="fill:#2E363D;" d="M409.23,291.383c0-2.822,2.288-5.11,5.11-5.11c2.822,0,5.11,2.288,5.11,5.11
						c0,2.822-2.288,5.11-5.11,5.11C411.517,296.493,409.23,294.205,409.23,291.383z"/>
					<path style="fill:#FFFFFF;" d="M416.518,293.283l-1.9-1.9l1.9-1.9c0.076-0.076,0.077-0.202,0-0.278
						c-0.076-0.076-0.201-0.076-0.278,0l-1.9,1.9l-1.9-1.9c-0.076-0.076-0.202-0.076-0.278,0c-0.077,0.077-0.076,0.202,0,0.278
						l1.9,1.9l-1.9,1.9c-0.076,0.077-0.076,0.202,0,0.278c0.076,0.077,0.202,0.077,0.278,0l1.9-1.9l1.9,1.9
						c0.077,0.077,0.202,0.077,0.278,0C416.594,293.484,416.595,293.359,416.518,293.283z"/>
				</g>
			</g>
		</g>
		<g>
			<path style="fill:#ed5537;" d="M443.514,217.367h-54.142c-9.872,0-17.874-8.003-17.874-17.874v-54.142
				c0-9.872,8.003-17.874,17.874-17.874h54.142c9.872,0,17.874,8.003,17.874,17.874v54.142
				C461.388,209.364,453.385,217.367,443.514,217.367z"/>
			<g>
				<g>
					<rect x="395.009" y="144.678" style="fill:#DEDEDE;" width="9.75" height="8.333"/>
					<polygon style="fill:#F8F8F8;" points="395.009,152.516 395.009,196.34 437.877,196.34 437.877,144.678 403.667,144.678 					
						"/>
					<polyline style="fill:none;stroke:#121D30;stroke-width:0.75;stroke-miterlimit:10;" points="437.877,158.375 437.877,144.678 
						411.75,144.678 					"/>
					<g>
						<path style="fill:#969696;" d="M418.927,174.956h-5.919v-0.592c0-1.007,0.114-1.825,0.343-2.453
							c0.228-0.628,0.569-1.202,1.02-1.721c0.452-0.519,1.467-1.433,3.045-2.742c0.841-0.685,1.262-1.314,1.262-1.885
							c0-0.571-0.169-1.015-0.506-1.332c-0.337-0.317-0.849-0.475-1.534-0.475c-0.737,0-1.347,0.244-1.83,0.732
							c-0.483,0.488-0.792,1.34-0.927,2.555l-6.044-0.748c0.208-2.222,1.015-4.011,2.422-5.366c1.407-1.355,3.565-2.033,6.472-2.033
							c2.264,0,4.092,0.473,5.483,1.418c1.89,1.277,2.835,2.98,2.835,5.109c0,0.883-0.244,1.734-0.732,2.555
							c-0.488,0.82-1.485,1.823-2.991,3.007c-1.049,0.831-1.711,1.498-1.986,2.002C419.065,173.49,418.927,174.146,418.927,174.956z
							 M412.805,176.53h6.34v5.592h-6.34V176.53z"/>
					</g>
				</g>
				<g>
					<g>
						<path style="opacity:0.11;fill:#FFFFFF;" d="M417.61,179.947c0.697,0.697,0.697,1.827,0,2.523
							c-0.697,0.697-1.826,0.697-2.523,0c-0.697-0.697-0.697-1.827,0-2.523C415.783,179.25,416.913,179.25,417.61,179.947z"/>
						<path style="fill:#DEDEDE;" d="M455.947,209.039L455.947,209.039c-1.982,1.982-5.197,1.982-7.179,0l-14.8-14.8l7.179-7.179
							l14.8,14.8C457.929,203.842,457.929,207.057,455.947,209.039z"/>
						<path style="fill:none;stroke:#121D30;stroke-width:0.75;stroke-miterlimit:10;" d="M455.947,201.86
							c1.982,1.982,1.982,5.196,0,7.179l0,0c-1.982,1.982-5.197,1.982-7.179,0l-14.8-14.8"/>
						<path style="fill:#5C5C5C;" d="M441.552,188.569l-6.075,6.075c-0.778,0.778-2.051,0.778-2.829,0l-3.78-3.78
							c-0.778-0.778-0.778-2.051,0-2.829l6.075-6.075c0.778-0.778,2.051-0.778,2.829,0l3.78,3.78
							C442.33,186.518,442.33,187.791,441.552,188.569z"/>
						<path style="fill:#DEDEDE;stroke:#1D1615;stroke-width:0.75;stroke-miterlimit:10;" d="M402.007,154.426
							c-8.705,8.333-9.007,22.195-0.674,30.9c8.333,8.705,22.195,9.007,30.9,0.674c8.705-8.334,9.007-22.195,0.674-30.9
							C424.574,146.395,410.712,146.092,402.007,154.426z M428.863,158.972c6.198,6.475,5.973,16.785-0.501,22.983
							c-6.475,6.198-16.785,5.973-22.983-0.501c-6.198-6.474-5.974-16.785,0.501-22.983
							C412.354,152.272,422.664,152.497,428.863,158.972z"/>
						<circle style="opacity:0.19;fill:#FFFFFF;" cx="416.894" cy="169.986" r="17.375"/>
						<path style="opacity:0.11;fill:#FFFFFF;" d="M414.948,168.08c2.595,2.595,2.595,6.803,0,9.398s-6.802,2.595-9.397,0
							s-2.595-6.802,0-9.398C408.145,165.485,412.353,165.485,414.948,168.08z"/>
						<path style="opacity:0.11;fill:#FFFFFF;" d="M424.881,161.999c1.435,1.435,2.4,3.161,2.902,4.988l3.164-1.729
							c-0.706-2.103-1.893-4.08-3.568-5.756c-5.79-5.79-15.178-5.79-20.968,0l2.497,2.497
							C413.318,157.588,420.47,157.588,424.881,161.999z"/>
						<path style="fill:#5C5C5C;" d="M402.232,155.324c-8.097,8.098-8.097,21.226,0,29.323c8.097,8.098,21.226,8.098,29.323,0
							c8.097-8.097,8.097-21.226,0-29.323C423.458,147.227,410.33,147.227,402.232,155.324z M429.18,182.272
							c-6.785,6.785-17.787,6.785-24.572,0c-6.785-6.785-6.785-17.787,0-24.572c6.785-6.785,17.787-6.785,24.572,0
							C435.965,164.486,435.965,175.487,429.18,182.272z"/>
						<g style="opacity:0.11;">
							<path style="fill:#FFFFFF;" d="M427.839,172.779c-0.484,1.903-1.468,3.705-2.957,5.194l2.497,2.497
								c2.181-2.181,3.54-4.873,4.078-7.691H427.839z"/>
						</g>
					</g>
				</g>
			</g>
		</g>
	</g>
</g>
</svg>
